# xmcd
#
# Track frame offsets:
# 150
# 23374
# 42162
# 59946
#
# Disc length: 1105 seconds
#
# Revision: 0
# Processed by: cddbd v1.4PL0 Copyright (c) Steve Scherf et al.
# Submitted via: MacMP3 Pro 5.0 (http://mp3.act2.co.jp/)
#
DISCID=2d044f04
DTITLE=Lyrico - Tears in Christmas
DYEAR=1900
DGENRE=
TTITLE0=Tears in Christmas
TTITLE1=йси”
TTITLE2=Messin'w/my mind
TTITLE3=Tears in Christmas(instrumental)
EXTD=
EXTT0=
EXTT1=
EXTT2=
EXTT3=
PLAYORDER=
